<svg xmlns="http://www.w3.org/2000/svg" viewBox="0 0 72 48">
  <rect width="72" height="48" rx="6" fill="#fff"/>
  <g fill="#b22234">
    <rect width="72" height="3.7"/>
    <rect y="7.4" width="72" height="3.7"/>
    <rect y="14.8" width="72" height="3.7"/>
    <rect y="22.2" width="72" height="3.7"/>
    <rect y="29.6" width="72" height="3.7"/>
    <rect y="37" width="72" height="3.7"/>
    <rect y="44.4" width="72" height="3.6"/>
  </g>
  <rect width="31" height="26" rx="3" fill="#3c3b6e"/>
  <g fill="#fff">
    <circle cx="5" cy="5" r="1"/>
    <circle cx="11" cy="5" r="1"/>
    <circle cx="17" cy="5" r="1"/>
    <circle cx="23" cy="5" r="1"/>
    <circle cx="8" cy="10" r="1"/>
    <circle cx="14" cy="10" r="1"/>
    <circle cx="20" cy="10" r="1"/>
    <circle cx="26" cy="10" r="1"/>
    <circle cx="5" cy="15" r="1"/>
    <circle cx="11" cy="15" r="1"/>
    <circle cx="17" cy="15" r="1"/>
    <circle cx="23" cy="15" r="1"/>
    <circle cx="8" cy="20" r="1"/>
    <circle cx="14" cy="20" r="1"/>
    <circle cx="20" cy="20" r="1"/>
    <circle cx="26" cy="20" r="1"/>
  </g>
</svg>
